<svg width="16" height="16" viewBox="0 0 16 16" fill="none" xmlns="http://www.w3.org/2000/svg">
<g clip-path="url(#clip0_302_7373)">
<path fill-rule="evenodd" clip-rule="evenodd" d="M2.69019 9.77934L4.00231 8.81829L3.95154 12.9162L0.0292053 11.7284L1.5165 10.639C1.12892 9.68683 0.954519 8.65755 1.01009 7.62414C1.08075 6.30999 1.52045 5.04237 2.27874 3.96673C3.03702 2.8911 4.08317 2.05101 5.29716 1.54286C6.51116 1.03471 7.84381 0.879076 9.14222 1.09382L8.91377 2.47506C7.87504 2.30326 6.80892 2.42777 5.83773 2.83429C4.86654 3.24081 4.02962 3.91288 3.42299 4.77339C2.81636 5.6339 2.4646 6.64799 2.40807 7.69931C2.37 8.4073 2.46685 9.11286 2.69019 9.77934Z" fill="#6B778C"/>
<path fill-rule="evenodd" clip-rule="evenodd" d="M13.452 6.29653L12.059 7.31686L12.1473 3.19141L16.1072 4.35175L14.6257 5.43686C15.0133 6.38904 15.1877 7.41831 15.1321 8.45173C15.0615 9.76588 14.6218 11.0335 13.8635 12.1091C13.1052 13.1848 12.059 14.0249 10.8451 14.533C9.63106 15.0412 8.29841 15.1968 7 14.982L7.22844 13.6008C8.26717 13.7726 9.33329 13.6481 10.3045 13.2416C11.2757 12.8351 12.1126 12.163 12.7192 11.3025C13.3259 10.442 13.6776 9.42788 13.7341 8.37656C13.7722 7.66857 13.6754 6.96301 13.452 6.29653Z" fill="#6B778C"/>
<path d="M8.07663 4.03149V8.03149" stroke="#6B778C"/>
<path d="M8.07663 11.0315L5.47855 8.03149L10.6747 8.03149L8.07663 11.0315Z" fill="#6B778C"/>
</g>
<defs>
<clipPath id="clip0_302_7373">
<rect width="16" height="16" fill="white"/>
</clipPath>
</defs>
</svg>
