<svg width="16" height="14" viewBox="0 0 16 14" fill="none" xmlns="http://www.w3.org/2000/svg">
<path fill-rule="evenodd" clip-rule="evenodd" d="M7.00085 13.8316L0.420647 11.002C-0.13989 10.755 -0.13989 10.3732 0.420647 10.1486L2.71154 9.16055L6.97653 11.002C7.53704 11.249 8.4388 11.249 8.97493 11.002L13.2399 9.16055L15.5308 10.1486C16.0913 10.3957 16.0913 10.7774 15.5308 11.002L8.95054 13.8316C8.4388 14.0561 7.53704 14.0561 7.00085 13.8316Z" fill="#344563"/>
<path fill-rule="evenodd" clip-rule="evenodd" d="M7.00085 10.2164L0.420647 7.38689C-0.13989 7.13984 -0.13989 6.75809 0.420647 6.5335L2.6628 5.56786L7.00085 7.43181C7.56142 7.67879 8.46312 7.67879 8.99931 7.43181L13.3374 5.56786L15.5795 6.5335C16.1401 6.78055 16.1401 7.1623 15.5795 7.38689L8.99931 10.2164C8.4388 10.4635 7.53704 10.4635 7.00085 10.2164Z" fill="#344563"/>
<path fill-rule="evenodd" clip-rule="evenodd" d="M7.00063 6.69774L0.420403 3.86819C-0.140134 3.62116 -0.140134 3.2394 0.420403 3.01483L7.00063 0.185269C7.56115 -0.0617563 8.46291 -0.0617563 8.9991 0.185269L15.5793 3.01483C16.1398 3.26186 16.1398 3.64362 15.5793 3.86819L8.9991 6.69774C8.43852 6.92233 7.53683 6.92233 7.00063 6.69774Z" fill="#344563"/>
</svg>
