<svg width="16" height="16" viewBox="0 0 16 16" fill="none" xmlns="http://www.w3.org/2000/svg">
<path fill-rule="evenodd" clip-rule="evenodd" d="M7.14439 13.853L1.36898 11.3824C0.877005 11.1668 0.877005 10.8334 1.36898 10.6374L3.37968 9.77466L7.12299 11.3824C7.61497 11.5981 8.40642 11.5981 8.87701 11.3824L12.6203 9.77466L14.631 10.6374C15.123 10.8531 15.123 11.1864 14.631 11.3824L8.85562 13.853C8.40642 14.049 7.61497 14.049 7.14439 13.853Z" fill="#6B778C" fill-opacity="0.5"/>
<path fill-rule="evenodd" clip-rule="evenodd" d="M7.12567 10.8402L1.36786 8.33981C0.87738 8.12152 0.87738 7.78417 1.36786 7.58573L3.32978 6.73242L7.12567 8.3795C7.61615 8.59779 8.40518 8.59779 8.87433 8.3795L12.6702 6.73242L14.6321 7.58573C15.1226 7.80401 15.1226 8.14137 14.6321 8.33981L8.87433 10.8402C8.38385 11.0585 7.59482 11.0585 7.12567 10.8402Z" fill="#6B778C" fill-opacity="0.75"/>
<path fill-rule="evenodd" clip-rule="evenodd" d="M7.12567 7.85282L1.36786 5.38021C0.87738 5.16435 0.87738 4.83074 1.36786 4.63451L7.12567 2.1619C7.61615 1.94603 8.40518 1.94603 8.87433 2.1619L14.6321 4.63451C15.1226 4.85037 15.1226 5.18397 14.6321 5.38021L8.87433 7.85282C8.38385 8.04906 7.59482 8.04906 7.12567 7.85282Z" fill="#6B778C"/>
</svg>
